{"accessors" : [{"bufferView" : 0, "byteOffset" : 0, "componentType" : 5123, "count" : 7026, "type" : "SCALAR", "max" : [7025], "min" : [0]}, {"bufferView" : 1, "byteOffset" : 0, "componentType" : 5126, "count" : 7026, "type" : "VEC3", "max" : [87.43035888671875, 100.02251434326172, 57.057403564453125], "min" : [-47.43035888671875, -0.022512972354888916, -17.057403564453125], "name" : "POSITION"}, {"bufferView" : 1, "byteOffset" : 12, "componentType" : 5126, "count" : 7026, "type" : "VEC3", "max" : [0.9999619126319885, 0.9976664781570435, 0.9998440742492676], "min" : [-0.9985249638557434, -0.999480664730072, -0.9980581998825073], "name" : "NORMAL"}, {"bufferView" : 1, "byteOffset" : 24, "componentType" : 5126, "count" : 7026, "type" : "VEC2", "max" : [1.0003999471664429, -0.006309986114501953], "min" : [0.009920000098645687, -0.9941099882125854], "name" : "TEXCOORD_0"}], "asset" : {"generator" : "Aspose.3D 21.4", "version" : "2.0"}, "buffers" : [{"uri" : "buffer.bin", "byteLength" : 238892}], "bufferViews" : [{"buffer" : 0, "byteOffset" : 0, "byteLength" : 14052, "target" : 34963}, {"buffer" : 0, "byteOffset" : 14056, "byteLength" : 224832, "byteStride" : 32, "target" : 34962}], "meshes" : [{"primitives" : [{"attributes" : {"POSITION" : 1, "NORMAL" : 2, "TEXCOORD_0" : 3}, "indices" : 0, "mode" : 4}]}], "nodes" : [{"mesh" : 0, "name" : "fox_low"}], "scene" : 0, "scenes" : [{"nodes" : [0]}]}